<svg width="33" height="32" viewBox="0 0 33 32" fill="none" xmlns="http://www.w3.org/2000/svg">
<path d="M30.5014 16.3109C30.5014 15.1598 30.4061 14.3198 30.1998 13.4487H16.7871V18.6442H24.6601C24.5014 19.9354 23.6442 21.8798 21.7394 23.1864L21.7127 23.3604L25.9536 26.58L26.2474 26.6087C28.9458 24.1665 30.5014 20.5731 30.5014 16.3109Z" fill="#4285F4"/>
<path d="M16.7862 30C20.6433 30 23.8814 28.7555 26.2465 26.6089L21.7386 23.1865C20.5322 24.011 18.9132 24.5866 16.7862 24.5866C13.0085 24.5866 9.80219 22.1444 8.65923 18.7688L8.4917 18.7827L4.08202 22.1272L4.02435 22.2843C6.37353 26.8577 11.1989 30 16.7862 30Z" fill="#34A853"/>
<path d="M8.66007 18.7688C8.35848 17.8977 8.18395 16.9643 8.18395 15.9999C8.18395 15.0354 8.35849 14.1021 8.6442 13.231L8.63621 13.0455L4.17126 9.64734L4.02518 9.71544C3.05696 11.6132 2.5014 13.7444 2.5014 15.9999C2.5014 18.2555 3.05696 20.3865 4.02518 22.2843L8.66007 18.7688Z" fill="#FBBC05"/>
<path d="M16.7863 7.4133C19.4688 7.4133 21.2783 8.54885 22.3101 9.4978L26.3418 5.64C23.8657 3.38445 20.6434 2 16.7863 2C11.199 2 6.37354 5.1422 4.02435 9.71549L8.64339 13.2311C9.80223 9.85555 13.0086 7.4133 16.7863 7.4133Z" fill="#EB4335"/>
</svg>
